<svg xmlns="http://www.w3.org/2000/svg" viewBox="0 0 1500 1500" width="1500" height="1500"><g transform="translate(606.0 64.0) rotate(0.0 415.5 532.0) scale(4.2615384615384615 4.256)"><svg width="195" height="250" viewBox="0 0 195 250"><linearGradient id="a"><stop offset="0" stop-color="#23286b"/><stop offset="1" stop-color="#151a4f"/></linearGradient><linearGradient xmlns:xlink="http://www.w3.org/1999/xlink" id="b" gradientUnits="userSpaceOnUse" x1="103.386" x2="103.248" xlink:href="#a" y1="6.789" y2="28.096"/><linearGradient xmlns:xlink="http://www.w3.org/1999/xlink" id="c" gradientUnits="userSpaceOnUse" x1="86.79" x2="86.891" xlink:href="#a" y1="22.238" y2="27.838"/><linearGradient xmlns:xlink="http://www.w3.org/1999/xlink" id="d" gradientUnits="userSpaceOnUse" x1="119.705" x2="119.463" xlink:href="#a" y1="21.668" y2="27.962"/><path d="M0 28.511v5.783h4.181v-2.147h6.212v6.2H4.181v-2.146H0v9.061h4.181v-2.146h6.212v6.2H4.181v-2.147H0v9.062h4.181v-2.146h6.212v6.199H4.181v-2.146H0v9.06h4.181v-2.145h6.212v6.2H4.181v-2.146H0v9.06h4.181v-2.145h6.212v6.199H4.181v-2.146H0v9.06h4.181v-2.146h6.212v6.201H4.181v-2.146H0v9.06h4.181v-2.146h6.212v6.199H4.181v-2.145H0v9.061h4.181v-2.147h6.212v6.2H4.181v-2.145H0v9.06h4.181v-2.146h6.212v6.2H4.181v-2.147H0v9.062h4.181v-2.146h6.212v6.199H4.181v-2.146H0v9.061h4.181v-2.146h6.212v6.2H4.181v-2.146H0v3.279h97.961V28.511z" fill="#0d236a"/><path d="M0 83.497v5.782h4.181v-2.146h6.212v6.199H4.181v-2.146H0v9.061h4.181v-2.146h6.212v6.2H4.181v-2.146H0v9.061h4.181v-2.146h6.212v6.199H4.181v-2.146H0v9.062h4.181v-2.147h6.212v6.2H4.181v-2.146H0v9.061h4.181v-2.146h6.212v6.2H4.181v-2.147H0v9.062h4.181v-2.146h6.212v6.199H4.181v-2.146H0v9.061h4.181v-2.146h6.212v6.2H4.181v-2.146H0v9.061h4.181v-2.146h6.212v6.199H4.181v-2.146H0v9.061h4.181v-2.146h6.212v6.2H4.181v-2.146H0v9.06h4.181v-2.145h6.212v6.199H4.181v-2.146H0v9.061h4.181v-2.145h6.212v6.199H4.181v-2.146H0v3.278h97.961V83.497z" fill="#0d236a"/><path d="M15.266 17.119H191.53v230.698H15.266z" fill="#d6d7d8"/><path d="m19.518 20.06 171.74-2.828L195 243.524l-171.741 2.829z" fill="#eee"/><path d="m25.768 22.705 163.787.981L188.194 250l-163.787-.981z" fill="#fff"/><path d="M80.606 4.472h45.437v2.072H80.606z" fill="#151a4f"/><path d="M80.606 6.473h45.437v19.648H80.606z" fill="url(#b)"/><path d="M99.734 24.841H77.87v-2.078h20.823v-3.304L87.655 1.583 88.54 0h16.052v2.078H90.405l10.216 16.541.154.546v4.637z" fill="#ff4945"/><path d="M128.309 24.841h-21.816l-1.041-1.039v-4.637l.155-.545 10.215-16.542h-14.187V0h16.051l.887 1.583-11.039 17.876v3.304h20.775z" fill="#ff4945"/><path d="M79.247 21.905h15.15v4.215h-15.15z" fill="url(#c)"/><path d="M111.829 21.905h15.572v4.215h-15.572z" fill="url(#d)"/><g fill="#eee"><path d="M37.982 73.238h6.245v4.155h-6.245zm81.636 4.155h-12.565v-4.155h12.565zm-25.13 0H81.922v-4.155h12.565zm-25.13 0H56.792v-4.155h12.565zm62.825-4.155h6.245v4.155h-6.245zm-94.201 34.28h6.245v4.155h-6.245zm81.636 4.155h-12.565v-4.155h12.565zm-25.13 0H81.922v-4.155h12.565zm-25.13 0H56.792v-4.155h12.565zm62.825-4.155h6.245v4.155h-6.245zm-94.201 34.28h6.245v4.155h-6.245zm81.636 4.155h-12.565v-4.155h12.565zm-25.13 0H81.922v-4.155h12.565zm-25.13 0H56.792v-4.155h12.565zm62.825-4.155h6.245v4.155h-6.245zm-94.201 34.28h6.245v4.155h-6.245zm81.636 4.155h-12.565v-4.155h12.565zm-25.13 0H81.922v-4.155h12.565zm-25.13 0H56.792v-4.155h12.565zm62.825-4.155h6.245v4.155h-6.245zm41.636-97.127h-26.543V52.462h26.543zm-22.379-4.155h18.216V56.617H151.44zm22.379 73.754h-26.543v-26.489h26.543zm-22.379-4.155h18.216v-18.179H151.44zm22.379 73.754h-26.543V191.66h26.543zm-22.379-4.155h18.216v-18.179H151.44z"/></g></svg></g><g transform="translate(1178.0 426.0) rotate(0.0 -556.0 501.5) scale(-3.0718232044198897 3.076687116564417)"><svg width="362" height="326" viewBox="0 0 362 326"><linearGradient id="e"><stop offset="0" stop-color="#428dfc"/><stop offset="1" stop-color="#1d72d8"/></linearGradient><linearGradient xmlns:xlink="http://www.w3.org/1999/xlink" id="g" gradientTransform="matrix(.2543 0 0 -.2543 -111.1093 -106.4484)" gradientUnits="userSpaceOnUse" x1="944.011" x2="1772.504" xlink:href="#e" y1="-1311.311" y2="-1311.311"/><linearGradient id="f"><stop offset="0" stop-color="#ffbeb6"/><stop offset="1" stop-color="#f2a19c"/></linearGradient><linearGradient xmlns:xlink="http://www.w3.org/1999/xlink" id="h" gradientTransform="matrix(.2543 0 0 -.2543 -111.1093 -106.4484)" gradientUnits="userSpaceOnUse" x1="608.28" x2="419.269" xlink:href="#f" y1="-1002.307" y2="-876.545"/><linearGradient xmlns:xlink="http://www.w3.org/1999/xlink" id="i" gradientTransform="matrix(.2543 0 0 -.2543 -111.1093 -106.4484)" gradientUnits="userSpaceOnUse" x1="679.049" x2="1076.985" xlink:href="#e" y1="-1352.896" y2="-1352.896"/><linearGradient id="j" gradientTransform="matrix(.2543 0 0 -.2543 -111.1093 -106.4484)" gradientUnits="userSpaceOnUse" x1="1048.26" x2="1819.125" y1="-1421.262" y2="-1421.262"><stop offset="0" stop-color="#d6d7d8"/><stop offset="1" stop-color="#eee"/></linearGradient><linearGradient xmlns:xlink="http://www.w3.org/1999/xlink" id="k" gradientTransform="matrix(.2543 0 0 -.2543 -111.1093 -106.4484)" gradientUnits="userSpaceOnUse" x1="1674.397" x2="1860.438" xlink:href="#f" y1="-1381.934" y2="-1381.934"/><linearGradient xmlns:xlink="http://www.w3.org/1999/xlink" id="l" gradientUnits="userSpaceOnUse" x1="62.328" x2="78.053" xlink:href="#f" y1="111.241" y2="105.019"/><path d="M209.995 5.994c3.469-.803 7.028-1.611 10.559-1.158 5.281.678 9.785 4.068 13.769 7.601 4.889 4.336 9.449 9.109 13.02 14.581 8.488 13.013 10.852 29.173 10.322 44.701-.53 15.527-3.719 30.83-5.413 46.275a241.534 241.534 0 0 0-.45 48.212 311.17 311.17 0 0 0-107.545 3.402c23.299-33.859 37.016-76.207 28.809-116.482-2.434-11.949-6.203-26.044 2.033-35.035 4.512-4.926 11.435-6.666 17.94-8.172l16.956-3.925z" fill="#151a4f"/><path d="M211.967 69.994c-.34.045-.69.095-.985.296-.924.628-.81 2.226-.591 3.464 3.947 22.197 2.355 45.743-4.524 66.905 12.888-9.588 29.961-.038 44.823-3.845-4.26-9.79-3.286-21.452-3.237-32.475.058-12.976 2.788-30.425.012-42.976-10.461 1.39-25.037 7.243-35.498 8.631z" fill="#f2a19c"/><path d="M186.863 31.037c-1.091 11.345 1.566 21.186 5.902 31.728 5.039 12.25 14.224 23.449 26.752 27.748 12.529 4.299 25.468 2.673 31.598-9.071 2.529-4.846 3.743-12.787 3.651-18.251-.252-14.993-3.796-30.664-14.745-40.907-6.497-6.078-13.26-14.681-22.122-15.44-8.863-.759-21.345 3.198-26.42 10.505-4.156 5.981-3.918 6.438-4.616 13.688z" fill="#ffbeb6"/><path d="M238.805 68.693c-1.773 1.979-4.343 3.046-6.897 3.776-3.957 1.129-8.178 1.595-12.199.722s-7.826-3.196-9.946-6.723c2.428.38 4.91.425 7.351.133 11.761-1.409 21.185-10.283 28.584-19.535-.423 4.823-.98 7.952-2.174 12.621-.693 2.71-2.854 6.921-4.719 9.006z" fill="#fff"/><path d="M175.403 50.26c12.114-19.619 32.961-33.615 55.705-37.396l11.517 10.35c-25.667 3.526-46.959 21.843-62.862 42.3-3.19-4.5-6.496-10.315-3.877-15.171-1.118 7.704 2.291-7.353-.483-.083z" fill="#e94a47"/><g fill="#23286b"><path d="M181.445 181.543c9.96-41.676 8.393-49.767 8.163-92.616-.052-9.533 4.106-47.912 10.951-59.547 9.599-16.317 18.236-19.024 27.233-22.173-21.217-17.796-47.48 1.624-53.694 12.602s-7.083 24.07-8.013 36.653a1185.521 1185.521 0 0 1-15.786 124.098 253.987 253.987 0 0 1 31.146.983z"/><path d="M196.086 77.296h-.004a.687.687 0 0 1-.681-.689c.096-14.689 3.153-28.514 9.91-44.824 4.262-10.285 13.608-21.321 19.116-24.318a.685.685 0 1 1 .652 1.204c-5.199 2.828-14.415 13.771-18.505 23.64-6.687 16.138-9.711 29.804-9.807 44.307a.679.679 0 0 1-.681.68z"/><path d="M200.979 71.188a.683.683 0 0 1-.68-.776c3.01-22.44 12.932-46.551 25.895-62.929a.684.684 0 1 1 1.074.85c-12.821 16.194-22.634 40.051-25.612 62.259a.683.683 0 0 1-.677.596zm-58.693 107.63-.042-.001a.685.685 0 0 1-.641-.726c2.686-43.24 8.558-80.717 19.634-125.318l.263-1.062c2.653-10.708 6.661-26.891 14.381-34.083a.684.684 0 1 1 .933 1.002c-7.422 6.915-11.373 22.859-13.985 33.409l-.263 1.062c-11.056 44.517-16.918 81.922-19.597 125.074a.684.684 0 0 1-.683.643z"/></g><path d="m256.897 113.913-1.208 22.947c-.017.326-.067.707-.353.865-.179.099-.398.074-.603.046-7.973-1.063-12.599 36.132-20.641 36.026-8.515-.112-20.451-37.469-28.912-36.51l.061-13.852c.007-1.642-.177-5.943-.177-5.943s2.124-2.037 3.625-2.727c5.15-2.369 10.36 5.972 15.765 4.258 2.893-.917 4.465-4.467 7.445-5.042 4.187-.809 6.904 4.575 10.977 5.839 2.509.778 5.252-.136 7.498-1.495s4.213-3.159 6.523-4.412z" fill="#fff"/><path d="m235.235 166.323 20.824-34.764a171.109 171.109 0 0 1 43.207 16.067c7.123 3.811 14.069 8.205 19.507 14.179 7.965 8.748 12.155 20.262 15.146 31.708 8.739 33.452 6.946 87.317-1.869 120.748-10.988-1.805-20.642-3.722-31.693-2.348-12.427 1.547-27.42 4.425-39.911 3.522-44.584-3.221-71.843-4.464-115.037 7.043-1.865-24.722-17.64-65.686-16.385-90.447 1.231-24.268 4.416-49.7 18.649-69.393 12.219-16.906 57.675-29.909 57.675-29.909s22.431 24.415 29.887 33.594z" fill="url(#g)"/><path d="M77.961 115.664c-3.389-13.494-8.897-14.031-18.821-23.956-1.603-1.603-3.338-4.121-5.133-2.737-1.752 4.939 10.608 13.346 11.686 24.888-16.171-9.352-40.243-13.881-54.803-12.91-5.133.342 3.765 4.448 15.399 6.161 10.621 1.562 17.11 5.818 26.641 10.738.563 1.629-5.802-1.096-7.477-1.497-15.881-3.811-27.034-6.844-43.946-8.124-4.989.594 3.612 9.081 8.186 10.861 11.37 4.422 24.122 7.734 35.492 12.156-2.983 5.468-32.925-13.011-27.032-5.69 10.476 11.778 26.419 18.479 42.161 17.719 2.595-.124 5.289-.427 7.719.488 2.856 1.076 5.524 3.868 6.338 6.81 11.671 42.288 24.487 82.304 34.391 109.17 2.91-4.049 13.31-41.633 17.936-43.493-8.943-24.223-25.386-36.893-34.021-61.228-3.765-10.609-8.522-18.46-11.634-26.351-.67-1.688-3.709-14.709-3.082-13.005z" fill="url(#h)"/><path d="M94.181 150.204c19.807 30.483 22.333 43.031 41.041 76.797 9.69 17.49 23.936 40.99 27.377 60.687.889 5.092-1.838 33.351-5.931 36.505-3.239 2.496-11.963-1.513-15.303-3.872s-5.509-5.994-7.56-9.531a1171.936 1171.936 0 0 1-72.232-147.511c11.777-1.326 23.176-5.895 32.608-13.075z" fill="url(#i)"/><path d="M120.122 314.78h231.372v11.221H120.122z" fill="#eee"/><path d="M231.107 35.841a.684.684 0 0 1-.022-1.37c9.072-.314 17.418-8.217 18.219-17.26.033-.375.381-.641.743-.621a.683.683 0 0 1 .621.742c-.875 9.866-9.638 18.168-19.534 18.509h-.027z" fill="#23286b"/><path d="M155.463 183.957h196.031v142.044H155.463z" fill="url(#j)"/><path d="M239.778 245.588h29.346v29.348h-29.346z" fill="#fff"/><path d="M317.275 283.127c3.567 6.242 29.745-8.913 34.676-14.145-.148 6.988-10.495 11.865-11.422 14.532-.814 2.34 4.846.57 6.927-.774 10.229-6.604 14.795-20.652 14.533-32.922-.087-4.091-1.454-6.188-2.737-10.038-4.106-12.32-4.562-39.699-7.408-33.607-3.055 8.091-5.806 21.825-1.718 29.044-14.805 10.528-24.018 21.725-33.851 37.001-1.431 2.226-2.562 5.695-.306 7.076l21.12-19.936c4.439-4.19 8.702-9.672 13.492-5.889-6.343 7.381-35.13 26.463-33.306 29.658z" fill="url(#k)"/><path d="M173.114 239.552c.103.382.414.625.794.523.382-.103.626-.413.524-.795-.103-.382-.414-.625-.794-.523-.384.103-.627.413-.524.795zm25.448 61.086c-.244.311-.141.693.17.937s.693.141.936-.17c.244-.311.141-.693-.17-.937-.276-.417-.692-.142-.936.17zm8.712-14.46c-.244.311-.141.693.17.937s.693.141.936-.17c.244-.311.141-.693-.17-.937-.138-.208-.692-.142-.936.17zm-29.584-15.036c.311.244.657.314 1.038.211.244-.311.314-.657.211-1.039-.311-.244-.657-.314-.866-.177-.588.243-.66.59-.383 1.005zm13.757-10.006c.311.244.657.314 1.038.211.244-.311.314-.657.211-1.039-.311-.244-.657-.314-.866-.177-.589.242-.694.761-.383 1.005zm40.894 43.667c-.07.347.206.764.552.834.347.07.764-.206.833-.551.07-.347-.206-.764-.552-.834-.348-.072-.762.204-.833.551zm2.688-16.767c-.07.347.206.764.552.834.347.07.764-.206.833-.551.07-.347-.206-.764-.552-.834-.345-.072-.763.205-.833.551zm-66.652-30.511c.138.208.624.487.866.177.208-.138.488-.623.177-.867-.138-.208-.624-.487-.866-.177-.383.104-.454.45-.177.867zm12.952-7.825c.138.208.624.487.866.177.208-.138.452-.449.177-.867-.138-.208-.45-.451-.866-.177-.246.313-.316.659-.177.867zm37.664 45.354c-.07.347.033.728.38.798s.555-.067.797-.379c.07-.347-.033-.728-.38-.798-.345-.07-.727.033-.797.379zm3.687-14.58c-.07.347.033.728.38.798s.555-.067.797-.379c.07-.347-.033-.728-.38-.798-.345-.069-.726.033-.797.379zm-29.197-6.299c-.244.311-.141.693.17.937s.693.141.936-.17c.244-.311.141-.693-.17-.937-.309-.244-.692-.141-.936.17zm-32.812-2.707c-.244.311-.141.693.17.937s.693.141.936-.17c.244-.311.141-.693-.17-.937-.311-.243-.692-.14-.936.17zm10.409-13.934c-.244.311-.141.693.17.937s.693.141.936-.17c.244-.311.141-.693-.17-.937-.31-.244-.692-.141-.936.17zm10.27-14.141c-.244.311-.141.693.17.937s.693.141.936-.17c.244-.311.141-.693-.17-.937a1.336 1.336 0 0 0-.936.17zm50.277 46.296c.103.382.414.625.794.523.382-.103.626-.413.524-.795-.103-.382-.414-.625-.794-.523-.347-.072-.627.412-.524.795zm-59.597-68.752c-.418.277-.488.623-.211 1.039m23.31 57.403c-.07.347.206.764.551.834.347.07.764-.206.833-.551s-.206-.764-.551-.834c-.345-.07-.761.204-.833.551zm-11.922.1c-.07.347.206.764.551.834.347.07.764-.206.833-.551.07-.347-.033-.728-.551-.834-.345-.07-.761.205-.833.551zm4.838-16.69c-.07.347.206.764.551.834.347.07.728-.033.833-.551.07-.347-.206-.764-.517-1.008-.38.102-.797.378-.867.725zm-21.486-22.044c-.244.311-.141.693.17.937.311.244.693.141 1.11-.136.244-.311.141-.693-.136-1.111-.519-.105-.9-.003-1.144.31zm6.832-1.677c-.07.347.067.554.206.764.347.07.555-.067.764-.206.07-.347-.067-.554-.206-.764-.346-.069-.728.033-.764.206z" fill="#fff"/><path d="M73.674 132.965c2.237-.59 4.133-1.989 4.353-2.805.515-1.911 1.034-3.841 1.106-5.819.07-1.915-.282-3.819-.655-5.699-1.395-7.03-3.44-13.741-9.021-18.233-3.478-2.799-7.022-5.499-10.092-8.742-1.221-1.29-3.288-4.516-4.82-3.617-2.676 1.569 1.152 6.36 2.711 9.043 2.479 4.266 4.6 6.435 7.079 10.701.567.976.938 3.85 1.054 4.974.101.975-.524 2.85-.731 3.809a28.731 28.731 0 0 0-.594 7.722c.102 1.734.388 3.529 1.384 4.952 1.966 2.807 4.913 4.588 8.226 3.714z" fill="url(#l)"/></svg></g><g transform="translate(1220.0 549.0) rotate(0.0 81.0 56.5) scale(0.81 0.8188405797101449)"><svg width="200" height="138" viewBox="0 0 200 138"><linearGradient id="m" gradientUnits="userSpaceOnUse" x1="100" x2="100" y1="27.324" y2="176.514"><stop offset=".129" stop-color="#428dfc"/><stop offset=".999" stop-color="#1d72d8"/></linearGradient><path d="M0 37.852 61.538 138h50.888L200 0h-59.172L82.446 95.023 46.548 37.852z" fill="url(#m)"/></svg></g><g transform="translate(1224.0 259.0) rotate(0.0 77.5 53.0) scale(0.775 0.7681159420289855)"><svg width="200" height="138" viewBox="0 0 200 138"><linearGradient id="n" gradientUnits="userSpaceOnUse" x1="100" x2="100" y1="27.324" y2="176.514"><stop offset=".129" stop-color="#428dfc"/><stop offset=".999" stop-color="#1d72d8"/></linearGradient><path d="M0 37.852 61.538 138h50.888L200 0h-59.172L82.446 95.023 46.548 37.852z" fill="url(#n)"/></svg></g><g transform="translate(1220.0 851.0) rotate(0.0 79.0 54.0) scale(0.79 0.782608695652174)"><svg width="200" height="138" viewBox="0 0 200 138"><linearGradient id="o" gradientUnits="userSpaceOnUse" x1="100" x2="100" y1="27.324" y2="176.514"><stop offset=".129" stop-color="#428dfc"/><stop offset=".999" stop-color="#1d72d8"/></linearGradient><path d="M0 37.852 61.538 138h50.888L200 0h-59.172L82.446 95.023 46.548 37.852z" fill="url(#o)"/></svg></g></svg>